<svg xmlns="http://www.w3.org/2000/svg" width="42" height="42" fill="none" viewBox="0 0 42 42"><path fill="url(#paint0_linear)" fill-rule="evenodd" d="M2 6C2 4.34315 3.34315 3 5 3H37C38.6569 3 40 4.34315 40 6V28C40 29.6569 38.6569 31 37 31H24L26 36H31C31.5523 36 32 36.4477 32 37C32 37.5523 31.5523 38 31 38H11C10.4477 38 10 37.5523 10 37C10 36.4477 10.4477 36 11 36H16L18 31H5C3.34315 31 2 29.6569 2 28V6Z" clip-rule="evenodd" opacity=".15"/><path fill="url(#paint1_linear)" stroke="url(#paint2_linear)" stroke-width=".25" d="M5 4C3.89543 4 3 4.89543 3 6V28C3 29.1046 3.89543 30 5 30H37C38.1046 30 39 29.1046 39 28V6C39 4.89543 38.1046 4 37 4H5Z"/><path fill="url(#paint3_linear)" stroke="url(#paint4_linear)" stroke-width=".25" d="M17 32L19 37H23L21 32H17Z"/><path fill="url(#paint5_linear)" stroke="url(#paint6_linear)" stroke-width=".25" d="M12 36C12 35.4477 12.4477 35 13 35H29C29.5523 35 30 35.4477 30 36C30 36.5523 29.5523 37 29 37H13C12.4477 37 12 36.5523 12 36Z"/><defs><linearGradient id="paint0_linear" x1="2" x2="40" y1="3" y2="38" gradientUnits="userSpaceOnUse"><stop offset=".259" stop-color="#FFDB6E"/><stop offset="1" stop-color="#FFBC5E"/></linearGradient><linearGradient id="paint1_linear" x1="3" x2="39" y1="4" y2="30" gradientUnits="userSpaceOnUse"><stop offset=".259" stop-color="#FFDB6E"/><stop offset="1" stop-color="#FFBC5E"/></linearGradient><linearGradient id="paint2_linear" x1="3" x2="39" y1="4" y2="30" gradientUnits="userSpaceOnUse"><stop offset=".259" stop-color="#FFDB6E"/><stop offset="1" stop-color="#FFBC5E"/></linearGradient><linearGradient id="paint3_linear" x1="17" x2="23" y1="32" y2="37" gradientUnits="userSpaceOnUse"><stop offset=".259" stop-color="#FFDB6E"/><stop offset="1" stop-color="#FFBC5E"/></linearGradient><linearGradient id="paint4_linear" x1="17" x2="23" y1="32" y2="37" gradientUnits="userSpaceOnUse"><stop offset=".259" stop-color="#FFDB6E"/><stop offset="1" stop-color="#FFBC5E"/></linearGradient><linearGradient id="paint5_linear" x1="12" x2="30" y1="35" y2="37" gradientUnits="userSpaceOnUse"><stop offset=".259" stop-color="#FFDB6E"/><stop offset="1" stop-color="#FFBC5E"/></linearGradient><linearGradient id="paint6_linear" x1="12" x2="30" y1="35" y2="37" gradientUnits="userSpaceOnUse"><stop offset=".259" stop-color="#FFDB6E"/><stop offset="1" stop-color="#FFBC5E"/></linearGradient></defs></svg>