<?xml version="1.0" encoding="UTF-8"?>
<svg width="42" height="42" viewBox="0 0 42 42" fill="none" xmlns="http://www.w3.org/2000/svg">
    <!-- Neural Network Nodes -->
    <circle cx="21" cy="8" r="3" fill="url(#paint0_linear)" stroke="url(#paint1_linear)" stroke-width="0.25"/>
    <circle cx="12" cy="16" r="3" fill="url(#paint0_linear)" stroke="url(#paint1_linear)" stroke-width="0.25"/>
    <circle cx="30" cy="16" r="3" fill="url(#paint0_linear)" stroke="url(#paint1_linear)" stroke-width="0.25"/>
    <circle cx="8" cy="26" r="3" fill="url(#paint0_linear)" stroke="url(#paint1_linear)" stroke-width="0.25"/>
    <circle cx="21" cy="26" r="3" fill="url(#paint0_linear)" stroke="url(#paint1_linear)" stroke-width="0.25"/>
    <circle cx="34" cy="26" r="3" fill="url(#paint0_linear)" stroke="url(#paint1_linear)" stroke-width="0.25"/>
    <circle cx="16" cy="36" r="3" fill="url(#paint0_linear)" stroke="url(#paint1_linear)" stroke-width="0.25"/>
    <circle cx="26" cy="36" r="3" fill="url(#paint0_linear)" stroke="url(#paint1_linear)" stroke-width="0.25"/>

    <!-- Connection Lines -->
    <path opacity="0.8" d="M21 11L12 13.5M21 11L30 13.5M12 19L8 23.5M12 19L21 23.5M12 19L34 23.5M30 19L8 23.5M30 19L21 23.5M30 19L34 23.5M8 29L16 33.5M8 29L26 33.5M21 29L16 33.5M21 29L26 33.5M34 29L16 33.5M34 29L26 33.5" stroke="url(#paint2_linear)" stroke-width="0.75"/>

    <!-- Gradient Definitions -->
    <defs>
        <linearGradient id="paint0_linear" x1="5" y1="5" x2="37" y2="37" gradientUnits="userSpaceOnUse">
            <stop offset="0.259336" stop-color="#FFDB6E"/>
            <stop offset="1" stop-color="#FFBC5E"/>
        </linearGradient>
        <linearGradient id="paint1_linear" x1="5" y1="5" x2="37" y2="37" gradientUnits="userSpaceOnUse">
            <stop offset="0.259336" stop-color="#FFDB6E"/>
            <stop offset="1" stop-color="#FFBC5E"/>
        </linearGradient>
        <linearGradient id="paint2_linear" x1="8" y1="11" x2="34" y2="36" gradientUnits="userSpaceOnUse">
            <stop offset="0.259336" stop-color="#FFDB6E"/>
            <stop offset="1" stop-color="#FFBC5E"/>
        </linearGradient>
    </defs>
</svg> 